<!DOCTYPE svg PUBLIC "-//W3C//DTD SVG 1.1//EN" "http://www.w3.org/Graphics/SVG/1.1/DTD/svg11.dtd">
<!-- Uploaded to: SVG Repo, www.svgrepo.com, Transformed by: SVG Repo Mixer Tools -->
<svg width="800px" height="800px" viewBox="0 0 24 24" fill="none" xmlns="http://www.w3.org/2000/svg">
<g id="SVGRepo_bgCarrier" stroke-width="0"/>
<g id="SVGRepo_tracerCarrier" stroke-linecap="round" stroke-linejoin="round"/>
<g id="SVGRepo_iconCarrier"> <path d="M3.35288 8.95043C4.00437 6.17301 6.17301 4.00437 8.95043 3.35288C10.9563 2.88237 13.0437 2.88237 15.0496 3.35288C17.827 4.00437 19.9956 6.17301 20.6471 8.95044C21.1176 10.9563 21.1176 13.0437 20.6471 15.0496C19.9956 17.827 17.827 19.9956 15.0496 20.6471C13.0437 21.1176 10.9563 21.1176 8.95044 20.6471C6.17301 19.9956 4.00437 17.827 3.35288 15.0496C2.88237 13.0437 2.88237 10.9563 3.35288 8.95043Z" stroke="#000000" stroke-width="2.4"/> <path d="M8 9.5L10.0781 11.2318C10.5579 11.6316 10.5579 12.3684 10.0781 12.7682L8 14.5" stroke="#942192" stroke-width="2.4" stroke-linecap="round" stroke-linejoin="round"/> <path d="M12.5 14.5H16" stroke="#942192" stroke-width="2.4" stroke-linecap="round"/> </g>
</svg>